G04 #@! TF.FileFunction,Copper,L2,Bot,Signal*
%FSLAX46Y46*%                          // Format specification, LA = backwards compatible, XNM-YNM where N = # of integer digits, M = # of decimal digits
G04 Gerber Fmt 4.6, Leading zero omitted, Abs format (unit mm)*
G04 Created by KiCad (PCBNEW 4.0.7-e2-6376~58~ubuntu16.04.1) date Wed Feb 21 21:54:52 2018*
%MOMM*%                                // Coordinate format, IN = inches, MM = millimeters
%LPD*%                                 //
G01*
G04 APERTURE LIST*                     // Aperture list
%ADD10C,0.100000*%                     // ADD(D-code number/aperture number)(aperture name),(modifiers set = modifierX)*
%ADD11R,1.700000X1.700000*%            // Starts at 10: D10 = AD10C
%ADD12O,1.700000X1.700000*%            // C= circle, R = rect, O = obround, P = polygon
%ADD13C,1.600000*%
%ADD14O,1.600000X1.600000*%
%ADD15C,0.600000*%
%ADD16C,0.250000*%
G04 APERTURE END LIST*
D10*                                   // Starting aperture 1
D11*                                   // D01, D02, D03 = operation codes
X46990000Y-40640000D03*                // D01 = moves to point, while drawing
X55880000Y-76200000D03*                // D02 = moves to point, no draw
D12*                                   // D03 = sets origin to that point
X53594000Y-76200000D03*
X51308000Y-76200000D03*                // G-commands
D13*                                   // G02 = clockwise, G03 = counterclockwise, G74 = single quadrant, G75 = multi quadrant
X46990000Y-71120000D03*
D14*
X46990000Y-78740000D03*
D13*
X46990000Y-44450000D03*
D14*
X46990000Y-52070000D03*
D13*
X46990000Y-59690000D03*
D14*
X46990000Y-67310000D03*
D13*
X55880000Y-44450000D03*
D14*
X55880000Y-52070000D03*
D13*
X55880000Y-59690000D03*
D14*
X55880000Y-67310000D03*
D13*
X64770000Y-44450000D03*
D14*
X64770000Y-52070000D03*
D13*
X64770000Y-59690000D03*
D14*
X64770000Y-67310000D03*
D11*
X53340000Y-80010000D03*
X60960000Y-76200000D03*
D15*
X54610000Y-55880000D03*
D16*
X54610000Y-55880000D02*
X52070000Y-58420000D01*
X52070000Y-58420000D02*
X45720000Y-58420000D01*
X45720000Y-58420000D02*
X45720000Y-66040000D01*
X45720000Y-66040000D02*
X46990000Y-67310000D01*
X55880000Y-76200000D02*
X60960000Y-76200000D01*
X64770000Y-44450000D02*
X64770000Y-49530000D01*
X64770000Y-49530000D02*
X66040000Y-50800000D01*
X66040000Y-50800000D02*
X66040000Y-58420000D01*
X66040000Y-58420000D02*
X64770000Y-59690000D01*
X55880000Y-44450000D02*
X64770000Y-44450000D01*
X64770000Y-59690000D02*
X55880000Y-59690000D01*
X55880000Y-59690000D02*
X46990000Y-59690000D01*
X46990000Y-44450000D02*
X55880000Y-44450000D01*
M02*
