G04 #@! TF.FileFunction,Soldermask,Top*
%FSLAX46Y46*%
G04 Gerber Fmt 4.6, Leading zero omitted, Abs format (unit mm)*
G04 Created by KiCad (PCBNEW 4.0.7-e2-6376~58~ubuntu16.04.1) date Wed Feb 21 21:54:52 2018*
%MOMM*%
%LPD*%
G01*
G04 APERTURE LIST*
%ADD10C,0.100000*%
%ADD11R,2.100000X2.100000*%
%ADD12O,2.100000X2.100000*%
%ADD13C,2.000000*%
%ADD14O,2.000000X2.000000*%
%ADD15R,2.600000X2.800000*%
%ADD16R,1.600000X2.800000*%
%ADD17R,2.800000X2.600000*%
%ADD18R,2.800000X1.600000*%
G04 APERTURE END LIST*
D10*
D11*
X46990000Y-40640000D03*
X55880000Y-76200000D03*
D12*
X53594000Y-76200000D03*
X51308000Y-76200000D03*
D13*
X46990000Y-71120000D03*
D14*
X46990000Y-78740000D03*
D13*
X46990000Y-44450000D03*
D14*
X46990000Y-52070000D03*
D13*
X46990000Y-59690000D03*
D14*
X46990000Y-67310000D03*
D13*
X55880000Y-44450000D03*
D14*
X55880000Y-52070000D03*
D13*
X55880000Y-59690000D03*
D14*
X55880000Y-67310000D03*
D13*
X64770000Y-44450000D03*
D14*
X64770000Y-52070000D03*
D13*
X64770000Y-59690000D03*
D14*
X64770000Y-67310000D03*
D15*
X70080000Y-72390000D03*
D16*
X67980000Y-72390000D03*
D17*
X68580000Y-67540000D03*
D18*
X68580000Y-65440000D03*
D17*
X68580000Y-62460000D03*
D18*
X68580000Y-60360000D03*
D17*
X68580000Y-57380000D03*
D18*
X68580000Y-55280000D03*
D17*
X68580000Y-52300000D03*
D18*
X68580000Y-50200000D03*
D17*
X68580000Y-47220000D03*
D18*
X68580000Y-45120000D03*
D17*
X68580000Y-42140000D03*
D18*
X68580000Y-40040000D03*
D15*
X61190000Y-72390000D03*
D16*
X59090000Y-72390000D03*
D17*
X59690000Y-67540000D03*
D18*
X59690000Y-65440000D03*
D17*
X59690000Y-62460000D03*
D18*
X59690000Y-60360000D03*
D17*
X59690000Y-57380000D03*
D18*
X59690000Y-55280000D03*
D17*
X59690000Y-52300000D03*
D18*
X59690000Y-50200000D03*
D17*
X59690000Y-47220000D03*
D18*
X59690000Y-45120000D03*
D17*
X59690000Y-42140000D03*
D18*
X59690000Y-40040000D03*
D15*
X52300000Y-72390000D03*
D16*
X50200000Y-72390000D03*
D17*
X50800000Y-67540000D03*
D18*
X50800000Y-65440000D03*
D17*
X50800000Y-62460000D03*
D18*
X50800000Y-60360000D03*
D17*
X50800000Y-57380000D03*
D18*
X50800000Y-55280000D03*
D17*
X50800000Y-52300000D03*
D18*
X50800000Y-50200000D03*
D17*
X50800000Y-47220000D03*
D18*
X50800000Y-45120000D03*
D17*
X50800000Y-42140000D03*
D18*
X50800000Y-40040000D03*
D11*
X53340000Y-80010000D03*
X60960000Y-76200000D03*
M02*
